# File created by Blade
# Date/Time:  Wed Apr 08 14:10:35 2015
# Frame Rate: 120.000 fps
#------------------------------------------------------
:FULLY-SPECIFIED
:DEGREES
634
root 0.911305 34.226219 18.488939 15.245281 1.509792 -3.067685
Spine -9.206682 -6.263409 0.469519
Head 3.109978 -3.772733 0.753063
LeftShoulder -21.941144 42.649351 17.346078
LeftArm 62.509353 -52.631034 -69.143258
LeftForeArm 2.246668 -0.000000 2.960570
LeftHand 11.283837 -0.000000 13.853241
LeftHandThumb1 -26.253704 0.000000 33.147579
RightShoulder -7.268595 -0.881945 -27.370121
RightArm 11.551586 11.599785 45.698141
RightForeArm -12.438634 -0.000000 12.489033
RightHand 10.814018 -0.000000 -9.030814
RightHandThumb1 -24.326973 -0.000000 -32.862282
LeftUpLeg -20.232344 -5.015439 3.695918
LeftLeg 4.588566 -0.000000 -0.000000
LeftFoot 7.059353 6.390180 -29.051361
LeftToeBase -13.780441 -0.000000 0.000000
RightUpLeg -10.977181 10.147106 5.894042
RightLeg 11.086886 -0.000000 -0.000000
RightFoot 9.955950 -19.289541 1.155729
RightToeBase -26.661241 -0.000000 0.000000
635
root 0.921964 34.263557 18.431049 15.187199 1.482529 -2.968767
Spine -9.370421 -6.160477 0.471294
Head 3.306008 -3.756487 0.589803
LeftShoulder -22.009785 42.495529 17.508795
LeftArm 62.345217 -53.112478 -68.800325
LeftForeArm 2.607670 -0.000000 2.842974
LeftHand 10.992671 -0.000000 13.886233
LeftHandThumb1 -26.253704 0.000000 33.147579
RightShoulder -7.310975 -0.631860 -27.630976
RightArm 11.305645 11.767634 45.256248
RightForeArm -12.555780 -0.000000 12.139125
RightHand 10.837178 -0.000000 -8.965576
RightHandThumb1 -24.326973 -0.000000 -32.862282
LeftUpLeg -19.952349 -5.209582 3.613722
LeftLeg 4.908612 -0.000000 -0.000000
LeftFoot 5.589490 5.917118 -28.459477
LeftToeBase -12.551514 -0.000000 0.000000
RightUpLeg -10.737320 10.127750 5.768451
RightLeg 10.474544 -0.000000 -0.000000
RightFoot 10.480506 -19.266429 1.139008
RightToeBase -25.847445 -0.000000 0.000000
636
root 0.933807 34.297255 18.376979 15.082305 1.457566 -2.834151
Spine -9.480331 -6.120166 0.431673
Head 3.502829 -3.733467 0.431720
LeftShoulder -22.205053 42.421611 17.562618
LeftArm 62.313320 -53.585149 -68.535470
LeftForeArm 2.945847 0.000000 2.751044
LeftHand 10.800795 0.000000 13.956067
LeftHandThumb1 -26.253704 0.000000 33.147579
RightShoulder -7.409694 -0.653191 -27.807209
RightArm 11.405756 12.043567 44.818038
RightForeArm -12.549157 -0.000000 11.762322
RightHand 10.891650 -0.000000 -9.032051
RightHandThumb1 -24.326973 -0.000000 -32.862282
LeftUpLeg -19.640054 -5.412563 3.489915
LeftLeg 5.403312 -0.000000 -0.000000
LeftFoot 4.024476 5.675960 -28.323614
LeftToeBase -12.325987 -0.000000 0.000000
RightUpLeg -10.455040 10.077107 5.613759
RightLeg 9.843997 -0.000000 -0.000000
RightFoot 10.965896 -19.109831 0.882371
RightToeBase -25.527338 -0.000000 0.000000
637
root 0.945352 34.329577 18.318970 14.959787 1.418465 -2.683821
Spine -9.548425 -6.036990 0.346380
Head 3.684286 -3.737931 0.335980
LeftShoulder -22.269736 42.259024 17.728250
LeftArm 62.151965 -54.089476 -68.264834
LeftForeArm 3.234001 -0.000000 2.779375
LeftHand 10.501607 0.000000 14.289132
LeftHandThumb1 -26.253704 0.000000 33.147579
RightShoulder -7.450199 -0.162979 -28.080625
RightArm 10.947970 12.193861 44.379371
RightForeArm -12.699811 -0.000000 11.558080
RightHand 10.915672 0.000000 -8.777693
RightHandThumb1 -24.326973 -0.000000 -32.862282
LeftUpLeg -19.316805 -5.645433 3.357495
LeftLeg 5.964868 -0.000000 -0.000000
LeftFoot 2.515422 5.647888 -28.268902
LeftToeBase -12.616533 -0.000000 0.000000
RightUpLeg -10.173049 10.109674 5.433304
RightLeg 9.268373 -0.000000 -0.000000
RightFoot 11.486998 -19.147923 0.751964
RightToeBase -25.166353 -0.000000 0.000000
